HIERARCHY
ROOT mixamorig:Hips
{
	OFFSET -0.000007 99.791939 0.000048
	CHANNELS 6 Xposition Yposition Zposition Xrotation Yrotation Zrotation
	JOINT mixamorig:Spine
	{
		OFFSET -0.000008 9.923462 -1.227335
		CHANNELS 3 Xrotation Yrotation Zrotation
		JOINT mixamorig:Spine1
		{
			OFFSET -0.001162 11.645439 -1.422341
			CHANNELS 3 Xrotation Yrotation Zrotation
			JOINT mixamorig:Spine2
			{
				OFFSET -0.001082 13.360199 -1.626459
				CHANNELS 3 Xrotation Yrotation Zrotation
				JOINT mixamorig:Neck
				{
					OFFSET -0.001294 15.032486 0.792904
					CHANNELS 3 Xrotation Yrotation Zrotation
					JOINT mixamorig:Head
					{
						OFFSET -0.000902 10.321838 3.142429
						CHANNELS 3 Xrotation Yrotation Zrotation
						JOINT mixamorig:HeadTop_End
						{
							OFFSET -0.001464 18.474670 6.636400
							CHANNELS 3 Xrotation Yrotation Zrotation
							End Site
							{
								OFFSET -0.001724 19.630463 0.000000
							}
						}
					}
				}
				JOINT mixamorig:LeftShoulder
				{
					OFFSET 6.105025 9.110947 0.705547
					CHANNELS 3 Xrotation Yrotation Zrotation
					JOINT mixamorig:LeftArm
					{
						OFFSET 12.655060 -0.264816 -2.600928
						CHANNELS 3 Xrotation Yrotation Zrotation
						JOINT mixamorig:LeftForeArm
						{
							OFFSET 27.404680 0.002457 -0.000007
							CHANNELS 3 Xrotation Yrotation Zrotation
							JOINT mixamorig:LeftHand
							{
								OFFSET 27.614456 0.002457 0.000007
								CHANNELS 3 Xrotation Yrotation Zrotation
								JOINT mixamorig:LeftHandThumb1
								{
									OFFSET 3.789009 -2.166824 3.002973
									CHANNELS 3 Xrotation Yrotation Zrotation
									JOINT mixamorig:LeftHandThumb2
									{
										OFFSET 3.675636 -2.121704 2.122010
										CHANNELS 3 Xrotation Yrotation Zrotation
										JOINT mixamorig:LeftHandThumb3
										{
											OFFSET 3.394531 -1.959473 1.959746
											CHANNELS 3 Xrotation Yrotation Zrotation
											JOINT mixamorig:LeftHandThumb4
											{
												OFFSET 2.679504 -1.546753 1.546951
												CHANNELS 3 Xrotation Yrotation Zrotation
												End Site
												{
													OFFSET 2.400604 -1.530380 1.964751
												}
											}
										}
									}
								}
								JOINT mixamorig:LeftHandIndex1
								{
									OFFSET 12.266647 -0.230743 2.822040
									CHANNELS 3 Xrotation Yrotation Zrotation
									JOINT mixamorig:LeftHandIndex2
									{
										OFFSET 3.891968 0.000336 0.000037
										CHANNELS 3 Xrotation Yrotation Zrotation
										JOINT mixamorig:LeftHandIndex3
										{
											OFFSET 3.415161 0.000305 -0.000010
											CHANNELS 3 Xrotation Yrotation Zrotation
											JOINT mixamorig:LeftHandIndex4
											{
												OFFSET 3.077995 0.000275 -0.000009
												CHANNELS 3 Xrotation Yrotation Zrotation
												End Site
												{
													OFFSET 3.077988 0.000259 0.000131
												}
											}
										}
									}
								}
								JOINT mixamorig:LeftHandMiddle1
								{
									OFFSET 12.775536 0.001129 0.000014
									CHANNELS 3 Xrotation Yrotation Zrotation
									JOINT mixamorig:LeftHandMiddle2
									{
										OFFSET 3.613968 0.000320 0.000000
										CHANNELS 3 Xrotation Yrotation Zrotation
										JOINT mixamorig:LeftHandMiddle3
										{
											OFFSET 3.459763 0.000305 -0.000028
											CHANNELS 3 Xrotation Yrotation Zrotation
											JOINT mixamorig:LeftHandMiddle4
											{
												OFFSET 3.680191 0.000320 0.000031
												CHANNELS 3 Xrotation Yrotation Zrotation
												End Site
												{
													OFFSET 3.680191 0.000351 -0.004814
												}
											}
										}
									}
								}
								JOINT mixamorig:LeftHandRing1
								{
									OFFSET 12.147018 0.011063 -2.216636
									CHANNELS 3 Xrotation Yrotation Zrotation
									JOINT mixamorig:LeftHandRing2
									{
										OFFSET 3.601181 0.000320 0.000033
										CHANNELS 3 Xrotation Yrotation Zrotation
										JOINT mixamorig:LeftHandRing3
										{
											OFFSET 3.307320 0.000305 -0.000023
											CHANNELS 3 Xrotation Yrotation Zrotation
											JOINT mixamorig:LeftHandRing4
											{
												OFFSET 3.660118 0.000320 0.000000
												CHANNELS 3 Xrotation Yrotation Zrotation
												End Site
												{
													OFFSET 3.660103 0.000229 0.005616
												}
											}
										}
									}
								}
								JOINT mixamorig:LeftHandPinky1
								{
									OFFSET 10.908218 -0.225174 -4.725837
									CHANNELS 3 Xrotation Yrotation Zrotation
									JOINT mixamorig:LeftHandPinky2
									{
										OFFSET 4.136658 0.000351 0.001166
										CHANNELS 3 Xrotation Yrotation Zrotation
										JOINT mixamorig:LeftHandPinky3
										{
											OFFSET 2.594826 0.000244 -0.001180
											CHANNELS 3 Xrotation Yrotation Zrotation
											JOINT mixamorig:LeftHandPinky4
											{
												OFFSET 2.923874 0.000244 0.000018
												CHANNELS 3 Xrotation Yrotation Zrotation
												End Site
												{
													OFFSET 2.923851 0.000275 -0.003346
												}
											}
										}
									}
								}
							}
						}
					}
				}
				JOINT mixamorig:RightShoulder
				{
					OFFSET -6.106495 9.109970 0.705565
					CHANNELS 3 Xrotation Yrotation Zrotation
					JOINT mixamorig:RightArm
					{
						OFFSET -12.655020 -0.267136 -2.600890
						CHANNELS 3 Xrotation Yrotation Zrotation
						JOINT mixamorig:RightForeArm
						{
							OFFSET -27.404675 -0.002365 0.000019
							CHANNELS 3 Xrotation Yrotation Zrotation
							JOINT mixamorig:RightHand
							{
								OFFSET -27.614464 -0.002396 0.000031
								CHANNELS 3 Xrotation Yrotation Zrotation
								JOINT mixamorig:RightHandThumb1
								{
									OFFSET -3.788620 -2.167480 3.002977
									CHANNELS 3 Xrotation Yrotation Zrotation
									JOINT mixamorig:RightHandThumb2
									{
										OFFSET -3.675247 -2.122314 2.122009
										CHANNELS 3 Xrotation Yrotation Zrotation
										JOINT mixamorig:RightHandThumb3
										{
											OFFSET -3.394188 -1.960129 1.959755
											CHANNELS 3 Xrotation Yrotation Zrotation
											JOINT mixamorig:RightHandThumb4
											{
												OFFSET -2.679230 -1.547195 1.546953
												CHANNELS 3 Xrotation Yrotation Zrotation
												End Site
												{
													OFFSET -2.398781 -1.531693 1.965949
												}
											}
										}
									}
								}
								JOINT mixamorig:RightHandIndex1
								{
									OFFSET -12.266594 -0.232895 2.822051
									CHANNELS 3 Xrotation Yrotation Zrotation
									JOINT mixamorig:RightHandIndex2
									{
										OFFSET -3.891968 -0.000336 0.000040
										CHANNELS 3 Xrotation Yrotation Zrotation
										JOINT mixamorig:RightHandIndex3
										{
											OFFSET -3.415161 -0.000305 -0.000006
											CHANNELS 3 Xrotation Yrotation Zrotation
											JOINT mixamorig:RightHandIndex4
											{
												OFFSET -3.077988 -0.000275 0.000006
												CHANNELS 3 Xrotation Yrotation Zrotation
												End Site
												{
													OFFSET -3.077980 0.000229 -0.008454
												}
											}
										}
									}
								}
								JOINT mixamorig:RightHandMiddle1
								{
									OFFSET -12.775528 -0.001114 0.000025
									CHANNELS 3 Xrotation Yrotation Zrotation
									JOINT mixamorig:RightHandMiddle2
									{
										OFFSET -3.613968 -0.000320 0.000005
										CHANNELS 3 Xrotation Yrotation Zrotation
										JOINT mixamorig:RightHandMiddle3
										{
											OFFSET -3.459763 -0.000305 -0.000025
											CHANNELS 3 Xrotation Yrotation Zrotation
											JOINT mixamorig:RightHandMiddle4
											{
												OFFSET -3.680191 -0.000320 0.000034
												CHANNELS 3 Xrotation Yrotation Zrotation
												End Site
												{
													OFFSET -3.680168 -0.000031 0.012581
												}
											}
										}
									}
								}
								JOINT mixamorig:RightHandRing1
								{
									OFFSET -12.147003 0.008942 -2.216624
									CHANNELS 3 Xrotation Yrotation Zrotation
									JOINT mixamorig:RightHandRing2
									{
										OFFSET -3.601196 -0.000320 0.000037
										CHANNELS 3 Xrotation Yrotation Zrotation
										JOINT mixamorig:RightHandRing3
										{
											OFFSET -3.307312 -0.000290 -0.000019
											CHANNELS 3 Xrotation Yrotation Zrotation
											JOINT mixamorig:RightHandRing4
											{
												OFFSET -3.660118 -0.000320 0.000002
												CHANNELS 3 Xrotation Yrotation Zrotation
												End Site
												{
													OFFSET -3.660110 0.000107 0.002180
												}
											}
										}
									}
								}
								JOINT mixamorig:RightHandPinky1
								{
									OFFSET -10.908173 -0.227081 -4.725826
									CHANNELS 3 Xrotation Yrotation Zrotation
									JOINT mixamorig:RightHandPinky2
									{
										OFFSET -4.136642 -0.000366 0.000029
										CHANNELS 3 Xrotation Yrotation Zrotation
										JOINT mixamorig:RightHandPinky3
										{
											OFFSET -2.594841 -0.000229 -0.000036
											CHANNELS 3 Xrotation Yrotation Zrotation
											JOINT mixamorig:RightHandPinky4
											{
												OFFSET -2.923874 -0.000259 0.000021
												CHANNELS 3 Xrotation Yrotation Zrotation
												End Site
												{
													OFFSET -2.923820 0.000336 -0.012876
												}
											}
										}
									}
								}
							}
						}
					}
				}
			}
		}
	}
	JOINT mixamorig:LeftUpLeg
	{
		OFFSET 9.124458 -6.656387 -0.055378
		CHANNELS 3 Xrotation Yrotation Zrotation
		JOINT mixamorig:LeftLeg
		{
			OFFSET 0.244681 -40.595421 -0.515619
			CHANNELS 3 Xrotation Yrotation Zrotation
			JOINT mixamorig:LeftFoot
			{
				OFFSET -0.244669 -42.047928 -2.059156
				CHANNELS 3 Xrotation Yrotation Zrotation
				JOINT mixamorig:LeftToeBase
				{
					OFFSET 0.373535 -7.208548 13.966561
					CHANNELS 3 Xrotation Yrotation Zrotation
					JOINT mixamorig:LeftToe_End
					{
						OFFSET -0.142059 -0.175224 9.997455
						CHANNELS 3 Xrotation Yrotation Zrotation
						End Site
						{
							OFFSET -0.142060 -0.175223 9.997459
						}
					}
				}
			}
		}
	}
	JOINT mixamorig:RightUpLeg
	{
		OFFSET -9.124448 -6.656403 -0.055378
		CHANNELS 3 Xrotation Yrotation Zrotation
		JOINT mixamorig:RightLeg
		{
			OFFSET -0.244680 -40.595459 -0.514290
			CHANNELS 3 Xrotation Yrotation Zrotation
			JOINT mixamorig:RightFoot
			{
				OFFSET 0.244670 -42.047859 -2.060535
				CHANNELS 3 Xrotation Yrotation Zrotation
				JOINT mixamorig:RightToeBase
				{
					OFFSET -0.373535 -7.208539 13.966558
					CHANNELS 3 Xrotation Yrotation Zrotation
					JOINT mixamorig:RightToe_End
					{
						OFFSET 0.141798 -0.175009 9.997463
						CHANNELS 3 Xrotation Yrotation Zrotation
						End Site
						{
							OFFSET 0.141798 -0.175009 9.997467
						}
					}
				}
			}
		}
	}
}
MOTION
Frames: 6
Frame Time: 0.033333
6.751630 95.263687 -13.768733 13.347019 9.297666 -0.685904 4.160212 -1.155238 0.140735 2.294959 -2.494554 2.610819 2.297437 -2.501049 2.605632 -3.295134 0.655070 2.340589 -18.051365 0.050695 3.532852 0.000000 -0.000000 -0.000000 0.163536 -2.332191 4.257297 -51.070106 -11.864162 -45.372400 -0.012869 -111.584732 -0.018965 -71.469064 -12.392023 -11.167396 10.565214 24.122655 8.151404 2.375186 5.218955 -0.231897 -7.171189 -0.205800 13.342741 -0.000000 0.000005 0.000001 8.964143 7.359509 -84.660249 5.016441 5.791478 -81.792014 5.202799 5.815904 -83.635147 0.000000 -0.000001 0.000001 2.864667 7.671306 -77.550514 3.434390 5.330798 -65.572514 4.238826 5.625836 -73.984288 0.000004 0.000002 -0.000001 2.706302 7.974767 -85.618129 3.074219 5.152232 -61.635518 7.252837 5.682232 -103.893707 0.000001 -0.000004 0.000001 -0.899892 11.167551 -86.410328 6.445702 5.805345 -96.103603 6.538388 5.837125 -96.759158 0.000001 0.000001 0.000002 -1.421284 -11.686159 3.629647 -52.302761 9.671842 49.034655 0.009308 118.045504 -0.015501 -66.298898 14.715525 21.445431 4.042001 -16.584543 -11.403339 2.792836 -6.735657 -0.673636 -5.010047 -6.569260 -15.240135 -0.000001 -0.000001 0.000001 -0.119327 0.208746 80.549159 3.782595 -4.573534 79.158675 3.877083 -4.591042 80.341172 0.000003 0.000001 -0.000001 -1.847235 -4.657009 67.959720 2.484390 -4.119801 62.158143 3.055012 -4.373054 69.852365 -0.000000 -0.000001 -0.000004 -2.677845 -5.044464 74.236752 2.000411 -3.825487 55.187331 5.218419 -4.623268 96.929168 -0.000001 0.000001 -0.000000 -12.715608 -6.537777 69.213544 4.321903 -4.644345 85.872847 4.354540 -4.647782 86.260474 0.000001 -0.000002 -0.000001 -14.648001 14.893560 9.460056 42.132592 -3.130347 0.848470 12.922603 -2.738215 -1.770400 -51.554903 3.218474 -5.952991 0.000000 -0.000001 0.000000 -42.372868 -5.920453 -6.499032 44.051121 -2.297717 2.981468 -6.625124 2.162711 -1.477262 -6.874513 -0.010378 0.196781 0.000000 0.000000 0.000000 
6.486508 95.604439 -15.551820 15.032085 8.974370 -1.178915 3.819540 -0.741644 0.889073 5.013939 -2.047266 1.612460 4.998966 -2.044133 1.594697 -3.695080 1.063713 0.882117 -26.543386 -2.636927 5.906035 0.000000 -0.000000 0.000000 0.269423 -4.231974 13.803181 -67.345187 -6.500660 -39.183877 -0.017226 -106.481686 -0.023062 -78.036318 -9.624064 -14.140156 8.834665 23.494799 8.920044 2.404342 5.254339 -0.206806 -7.134193 -0.156778 13.386527 0.000002 0.000003 0.000006 7.880029 7.261983 -83.010397 4.970394 5.784671 -81.335628 5.139595 5.808523 -83.010950 0.000002 -0.000000 0.000001 1.812315 7.381290 -76.362369 3.427357 5.327630 -65.496863 4.241921 5.626731 -74.015919 0.000004 -0.000000 -0.000001 1.572145 7.835106 -84.793090 3.086257 5.158682 -61.769403 7.222582 5.689588 -103.588254 0.000000 -0.000001 0.000002 -2.198107 10.341389 -86.045302 6.446294 5.805283 -96.109245 6.550637 5.835661 -96.880079 -0.000001 -0.000004 -0.000001 -3.467179 -15.437284 -4.916680 -71.831399 6.681195 52.770964 0.015606 107.694475 -0.021344 -76.224932 12.923336 22.180916 5.980703 -16.708220 -10.446370 2.801786 -6.729309 -0.687314 -4.900074 -6.807221 -15.355877 0.000003 0.000000 -0.000004 2.396119 -0.493444 81.317883 3.859918 -4.587614 80.126554 3.969151 -4.605713 81.489512 -0.000001 -0.000003 0.000001 0.069468 -5.520031 69.518622 2.522416 -4.139620 62.686301 3.117626 -4.395432 70.671202 0.000001 -0.000000 0.000002 -2.149551 -5.189069 74.209220 2.002741 -3.827080 55.222281 5.176864 -4.628127 96.414233 -0.000002 0.000002 0.000003 -13.097927 -6.225314 68.161791 4.238697 -4.637593 84.844624 4.269484 -4.641478 85.210155 -0.000000 0.000001 -0.000000 -29.447558 11.966967 13.650222 65.851124 -4.248839 -0.545952 9.653842 -2.499475 3.190064 3.173434 0.006525 -0.693737 0.000002 0.000001 0.000001 -41.233845 -5.361027 -4.643400 48.493766 -4.231672 2.518195 -5.911635 2.391030 -2.655698 -15.788302 -0.067542 1.742478 -0.000000 0.000000 -0.000000 
5.997258 95.462402 -17.194683 13.331708 8.656409 -0.089294 9.119170 -1.014660 -0.022692 5.077201 -2.287519 1.256209 5.072016 -2.245328 1.265220 -4.275599 1.523531 -0.303864 -29.891722 -4.280071 9.862085 -0.000000 0.000000 -0.000000 -0.282843 -2.778754 25.625053 -72.939570 0.253832 -31.685972 -0.031354 -99.230969 -0.036877 -80.739789 -8.210859 -16.679532 6.550546 22.774294 9.933402 2.435585 5.291878 -0.179848 -7.094470 -0.104434 13.433586 -0.000002 0.000007 0.000008 6.894815 7.220955 -81.204235 5.108012 5.803885 -82.698885 5.254885 5.821462 -84.148941 0.000001 0.000002 0.000000 1.026723 7.107454 -75.015442 3.574545 5.392003 -67.072464 4.409039 5.671729 -75.713740 0.000001 0.000001 0.000001 0.954447 7.714270 -83.924973 3.213905 5.224959 -63.179885 7.313246 5.667018 -104.504763 0.000005 0.000002 -0.000000 -2.658976 10.005774 -85.606565 6.525872 5.796633 -96.894293 6.636861 5.824655 -97.732808 -0.000003 0.000000 -0.000000 -7.628251 -18.391113 -21.296965 -79.691130 -2.435293 54.918423 0.037689 97.519569 -0.042898 -76.234794 13.223846 21.095341 6.801909 -15.928215 -9.377390 2.811227 -6.721698 -0.701979 -4.781850 -7.063786 -15.480308 0.000001 0.000003 -0.000001 4.543148 -1.040216 82.047333 3.935360 -4.600062 81.068410 4.058641 -4.618167 82.602218 -0.000001 0.000000 -0.000000 0.958383 -5.954810 71.888226 2.593382 -4.175405 63.664910 3.209393 -4.426451 71.864238 0.000002 0.000001 0.000001 -1.989695 -5.362035 75.452956 2.057818 -3.864683 56.043270 5.196009 -4.625927 96.651309 -0.000001 -0.000000 -0.000002 -13.794947 -6.151602 69.172215 4.250721 -4.638671 84.993235 4.283253 -4.642610 85.380117 0.000000 -0.000001 0.000002 -38.269499 9.558739 15.505228 85.513080 0.158266 0.444791 5.254112 -1.694851 7.922021 4.047475 0.000012 -0.000002 -0.000001 -0.000001 -0.000002 -36.161969 -5.060212 -4.187804 48.730613 -5.772090 1.771831 -10.989201 2.661903 -3.227294 -18.846526 -0.000157 0.000134 -0.000000 -0.000000 0.000000 
5.310486 95.694374 -18.281235 10.992448 9.140198 2.601095 15.482970 -2.061489 -3.794688 3.063094 -2.711747 1.291279 3.107195 -2.633083 1.374451 -5.074670 1.911440 -0.411262 -27.886009 -3.392666 12.760493 0.000000 -0.000000 0.000001 -0.790483 -1.773526 30.660364 -68.542991 1.467532 -27.277756 -0.063159 -94.609909 -0.068497 -81.794227 -7.954295 -17.716232 5.795628 21.581036 10.196889 2.469044 5.332230 -0.150943 -7.051869 -0.048261 13.484073 0.000003 0.000004 0.000004 6.250614 7.112086 -79.439321 5.138282 5.807672 -82.997918 5.269026 5.822888 -84.288318 -0.000001 -0.000000 0.000001 0.728886 6.953837 -73.908330 3.613533 5.408249 -67.486995 4.462054 5.684915 -76.249664 0.000002 -0.000001 0.000000 0.967310 7.676264 -83.404915 3.224509 5.230297 -63.296394 7.266950 5.678730 -104.036328 0.000003 -0.000004 -0.000001 -2.288562 10.225106 -85.552457 6.454639 5.804449 -96.191637 6.562281 5.834263 -96.995209 -0.000004 -0.000001 0.000002 -9.589597 -18.126610 -29.437671 -76.626567 -4.712858 51.613947 0.219998 91.295348 -0.224813 -73.835171 14.856047 19.339725 6.755065 -15.332419 -8.876134 2.821335 -6.713621 -0.717714 -4.655503 -7.339285 -15.613234 0.000001 0.000000 0.000002 4.896343 -1.016121 81.552616 3.906693 -4.595480 80.710863 4.039096 -4.615603 82.359350 -0.000002 -0.000001 0.000000 0.904723 -5.917815 71.450431 2.604217 -4.180720 63.813706 3.231470 -4.433615 72.150191 0.000000 0.000002 0.000003 -1.876744 -5.427710 75.814547 2.079122 -3.878917 56.358664 5.168629 -4.629034 96.311801 -0.000001 0.000001 0.000001 -13.931830 -6.950744 69.751435 4.252283 -4.638805 85.012612 4.284785 -4.642728 85.399276 0.000002 -0.000004 0.000001 -42.553356 9.248734 15.125413 94.699248 4.584928 1.538523 3.355687 -1.310399 10.964121 4.322444 -0.000001 0.000005 -0.000000 -0.000001 0.000000 -31.909783 -5.812722 -5.901033 45.041628 -5.609692 1.057370 -16.805226 3.365864 -5.411669 -10.019431 -0.000079 0.000081 0.000000 -0.000000 -0.000000 
4.816892 96.115570 -18.336470 12.682498 8.034501 4.031138 14.885356 -2.224877 -7.480164 1.886797 -2.281715 0.982945 1.936160 -2.273299 1.054405 -5.206853 1.639542 0.777004 -27.805398 -2.648810 13.158796 0.000000 0.000000 -0.000000 0.189432 -4.454390 26.536246 -61.390696 0.106651 -25.556613 -0.043406 -96.694114 -0.048823 -80.824094 -7.434712 -17.468108 7.387025 21.998552 9.182814 2.504843 5.375412 -0.120203 -7.006466 0.011800 13.537770 0.000003 0.000000 0.000004 6.404971 7.090465 -78.045068 5.022151 5.792294 -81.848766 5.162852 5.811332 -83.240533 0.000003 0.000001 -0.000002 1.085437 7.015353 -73.235884 3.553891 5.383274 -66.852669 4.416656 5.673640 -75.790627 -0.000004 -0.000000 0.000000 1.373840 7.699623 -83.075912 3.206386 5.221171 -63.097301 7.185315 5.698411 -103.212566 0.000003 -0.000000 0.000003 -1.827964 10.602836 -85.454580 6.440816 5.805854 -96.055191 6.546007 5.836212 -96.834317 -0.000000 -0.000001 -0.000004 -7.378838 -14.744676 -23.793778 -67.062335 -0.800700 46.010237 0.081127 93.510522 -0.086110 -70.847285 15.314864 19.467835 6.649799 -15.599628 -8.897137 2.832209 -6.705319 -0.734505 -4.521413 -7.632908 -15.754091 0.000005 -0.000001 -0.000001 4.064021 -0.671679 80.216173 3.807382 -4.578205 79.469312 3.944940 -4.602034 81.187733 -0.000002 -0.000000 0.000001 0.834459 -5.797377 69.320744 2.560059 -4.158774 63.206373 3.191989 -4.420729 71.638419 -0.000000 -0.000001 -0.000002 -1.785594 -5.362961 74.933288 2.051935 -3.860722 55.955823 5.076595 -4.638252 95.172614 -0.000000 -0.000000 -0.000001 -13.719672 -7.992805 69.132456 4.199668 -4.633930 84.361661 4.229649 -4.637973 84.717466 -0.000001 -0.000003 -0.000000 -47.859245 10.767333 15.459143 92.879050 4.234995 0.949297 2.335965 -1.452678 12.075917 4.050128 0.000015 0.000011 -0.000001 0.000001 0.000003 -33.163878 -5.891068 -6.712751 42.582295 -6.265992 0.764465 -17.462757 3.625271 -6.116903 -6.835156 -0.000050 0.000055 -0.000000 -0.000000 0.000000 
4.666019 97.604378 -17.804213 16.293276 3.669219 3.129477 11.348763 -0.828363 -9.612346 1.949291 -1.232557 1.519473 1.936517 -1.218485 1.533245 -6.320204 1.730255 1.110702 -28.137632 -1.239471 12.706056 -0.000000 -0.000000 0.000001 0.321817 -4.256944 13.777783 -51.846006 -1.857774 -27.395069 -0.021163 -103.527513 -0.026883 -80.627801 -8.288354 -17.055126 9.235262 23.184679 7.410464 2.542570 5.421061 -0.087791 -6.958543 0.075288 13.594388 -0.000001 0.000002 0.000003 7.449443 7.198546 -76.946855 5.018839 5.791844 -81.815974 5.187356 5.814158 -83.482588 0.000007 0.000000 0.000000 1.962089 7.253319 -72.684722 3.628823 5.414540 -67.648973 4.519172 5.698512 -76.825551 -0.000002 -0.000001 -0.000001 1.846168 7.730966 -82.659236 3.363045 5.297430 -64.806344 7.296342 5.671340 -104.333660 -0.000001 0.000000 -0.000001 -1.845211 11.055441 -85.124921 6.679912 5.776723 -98.418074 6.793907 5.801279 -99.290310 0.000001 -0.000001 0.000000 -4.281352 -9.899279 -14.882636 -54.239417 -0.825776 43.243307 0.023285 102.037603 -0.028742 -70.613077 13.858261 21.767599 6.104849 -14.761487 -9.259512 2.843714 -6.696523 -0.752249 -4.380366 -7.943180 -15.902053 0.000001 -0.000000 -0.000003 2.931632 -0.270944 78.753953 3.710533 -4.559204 78.253593 3.851212 -4.586574 80.017947 -0.000005 0.000000 -0.000001 -0.026577 -5.453842 68.974986 2.521162 -4.138955 62.668782 3.157197 -4.409072 71.186554 -0.000000 -0.000001 -0.000002 -2.345021 -5.128704 74.159721 2.028090 -3.844521 55.600851 4.989324 -4.645308 94.094373 0.000002 0.000000 0.000001 -14.137306 -8.135035 68.926711 4.152110 -4.629000 83.772823 4.181395 -4.633287 84.120384 -0.000001 -0.000001 -0.000000 -52.131730 12.866540 17.513221 80.700611 0.569266 -1.221300 1.081849 -3.131357 10.888938 3.158465 0.000005 0.000003 0.000005 -0.000001 -0.000000 -34.554764 -7.008841 -6.063085 37.444791 -5.652419 2.963728 -10.296498 2.904514 -4.087403 -11.065572 -0.000086 0.000087 -0.000000 -0.000001 -0.000000 
